<svg width="23" height="24" viewBox="0 0 23 24" fill="none" xmlns="http://www.w3.org/2000/svg">
<g clip-path="url(#clip0_43_1356)">
<path d="M11.4999 9.90906V14.3627H17.689C17.4172 15.795 16.6016 17.0077 15.3785 17.8232L19.1107 20.7191C21.2853 18.7119 22.5398 15.7637 22.5398 12.2614C22.5398 11.446 22.4667 10.6618 22.3307 9.90918L11.4999 9.90906Z" fill="white"/>
<path d="M5.05488 14.1889L4.21312 14.8332L1.23352 17.1541C3.12579 20.9072 7.00414 23.5 11.4996 23.5C14.6045 23.5 17.2076 22.4754 19.1104 20.7191L15.3781 17.8232C14.3536 18.5132 13.0468 18.9314 11.4996 18.9314C8.50957 18.9314 5.96919 16.9137 5.05958 14.1955L5.05488 14.1889Z" fill="white"/>
<path d="M1.23355 6.84591C0.449499 8.39312 0 10.1391 0 11.9999C0 13.8608 0.449499 15.6067 1.23355 17.154C1.23355 17.1643 5.05998 14.1849 5.05998 14.1849C4.82998 13.4949 4.69403 12.7631 4.69403 11.9998C4.69403 11.2365 4.82998 10.5048 5.05998 9.81476L1.23355 6.84591Z" fill="white"/>
<path d="M11.4998 5.07909C13.1935 5.07909 14.6989 5.66453 15.9012 6.79363L19.1943 3.50049C17.1975 1.63962 14.6048 0.5 11.4998 0.5C7.00437 0.5 3.12579 3.08227 1.23352 6.84592L5.05983 9.81501C5.96932 7.0968 8.50981 5.07909 11.4998 5.07909Z" fill="white"/>
</g>
<defs>
<clipPath id="clip0_43_1356">
<rect width="23" height="23" fill="white" transform="translate(0 0.5)"/>
</clipPath>
</defs>
</svg>
