<svg width="38" height="38" viewBox="0 0 38 38" fill="none" xmlns="http://www.w3.org/2000/svg">
<path fill-rule="evenodd" clip-rule="evenodd" d="M11.4417 0.776748C13.3967 0.686748 14.02 0.666748 19 0.666748C23.98 0.666748 24.6033 0.688415 26.5567 0.776748C28.51 0.865081 29.8433 1.17675 31.01 1.62841C32.2317 2.09008 33.34 2.81175 34.2567 3.74508C35.19 4.66008 35.91 5.76675 36.37 6.99008C36.8233 8.15675 37.1333 9.49008 37.2233 11.4401C37.3133 13.3984 37.3333 14.0217 37.3333 19.0001C37.3333 23.9801 37.3117 24.6034 37.2233 26.5584C37.135 28.5084 36.8233 29.8417 36.37 31.0084C35.91 32.2319 35.1888 33.3404 34.2567 34.2567C33.34 35.1901 32.2317 35.9101 31.01 36.3701C29.8433 36.8234 28.51 37.1334 26.56 37.2234C24.6033 37.3134 23.98 37.3334 19 37.3334C14.02 37.3334 13.3967 37.3117 11.4417 37.2234C9.49167 37.1351 8.15834 36.8234 6.99167 36.3701C5.76821 35.91 4.65971 35.1888 3.74334 34.2567C2.81064 33.3412 2.08886 32.2332 1.62834 31.0101C1.17667 29.8434 0.866672 28.5101 0.776672 26.5601C0.686672 24.6017 0.666672 23.9784 0.666672 19.0001C0.666672 14.0201 0.688338 13.3967 0.776672 11.4434C0.865005 9.49008 1.17667 8.15675 1.62834 6.99008C2.08954 5.76688 2.81187 4.65894 3.745 3.74341C4.66007 2.81092 5.76746 2.08915 6.99 1.62841C8.15667 1.17675 9.49 0.866748 11.44 0.776748H11.4417ZM26.4083 4.07675C24.475 3.98841 23.895 3.97008 19 3.97008C14.105 3.97008 13.525 3.98841 11.5917 4.07675C9.80334 4.15841 8.83334 4.45675 8.18667 4.70841C7.33167 5.04175 6.72001 5.43675 6.07834 6.07841C5.47008 6.67017 5.00197 7.39055 4.70834 8.18675C4.45667 8.83341 4.15834 9.80341 4.07667 11.5917C3.98834 13.5251 3.97001 14.1051 3.97001 19.0001C3.97001 23.8951 3.98834 24.4751 4.07667 26.4084C4.15834 28.1967 4.45667 29.1667 4.70834 29.8134C5.00167 30.6084 5.47001 31.3301 6.07834 31.9217C6.67 32.5301 7.39167 32.9984 8.18667 33.2917C8.83334 33.5434 9.80334 33.8417 11.5917 33.9234C13.525 34.0117 14.1033 34.0301 19 34.0301C23.8967 34.0301 24.475 34.0117 26.4083 33.9234C28.1967 33.8417 29.1667 33.5434 29.8133 33.2917C30.6683 32.9584 31.28 32.5634 31.9217 31.9217C32.53 31.3301 32.9983 30.6084 33.2917 29.8134C33.5433 29.1667 33.8417 28.1967 33.9233 26.4084C34.0117 24.4751 34.03 23.8951 34.03 19.0001C34.03 14.1051 34.0117 13.5251 33.9233 11.5917C33.8417 9.80341 33.5433 8.83341 33.2917 8.18675C32.9583 7.33175 32.5633 6.72008 31.9217 6.07841C31.3299 5.4702 30.6095 5.0021 29.8133 4.70841C29.1667 4.45675 28.1967 4.15841 26.4083 4.07675ZM16.6583 24.6517C17.9661 25.1961 19.4223 25.2696 20.7782 24.8596C22.1341 24.4496 23.3057 23.5816 24.0927 22.4038C24.8797 21.226 25.2334 19.8115 25.0934 18.4019C24.9534 16.9923 24.3283 15.675 23.325 14.6751C22.6854 14.0359 21.912 13.5464 21.0606 13.242C20.2091 12.9375 19.3007 12.8257 18.4008 12.9144C17.5009 13.0032 16.6319 13.2904 15.8563 13.7553C15.0808 14.2202 14.4179 14.8513 13.9155 15.6032C13.4131 16.355 13.0837 17.2089 12.9509 18.1033C12.8181 18.9978 12.8853 19.9106 13.1476 20.7759C13.4099 21.6413 13.8608 22.4378 14.4679 23.1079C15.0749 23.7781 15.823 24.3054 16.6583 24.6517ZM12.3367 12.3367C13.2117 11.4617 14.2505 10.7676 15.3938 10.294C16.5371 9.82045 17.7625 9.5767 19 9.5767C20.2375 9.5767 21.4629 9.82045 22.6062 10.294C23.7495 10.7676 24.7883 11.4617 25.6633 12.3367C26.5384 13.2118 27.2325 14.2506 27.7061 15.3939C28.1796 16.5372 28.4234 17.7626 28.4234 19.0001C28.4234 20.2376 28.1796 21.463 27.7061 22.6062C27.2325 23.7495 26.5384 24.7884 25.6633 25.6634C23.8961 27.4306 21.4992 28.4235 19 28.4235C16.5008 28.4235 14.1039 27.4306 12.3367 25.6634C10.5694 23.8962 9.57663 21.4993 9.57663 19.0001C9.57663 16.5008 10.5694 14.104 12.3367 12.3367ZM30.5133 10.9801C30.7302 10.7755 30.9038 10.5295 31.0238 10.2567C31.1439 9.98386 31.208 9.6897 31.2124 9.39163C31.2167 9.09357 31.1612 8.79766 31.0491 8.52143C30.9371 8.2452 30.7707 7.99427 30.5599 7.78348C30.3492 7.57269 30.0982 7.40634 29.822 7.29428C29.5458 7.18221 29.2498 7.12671 28.9518 7.13105C28.6537 7.1354 28.3596 7.1995 28.0867 7.31957C27.8139 7.43965 27.5679 7.61324 27.3633 7.83008C26.9655 8.2518 26.7477 8.81195 26.7562 9.39163C26.7646 9.97131 26.9987 10.5249 27.4086 10.9348C27.8185 11.3448 28.3721 11.5788 28.9518 11.5872C29.5315 11.5957 30.0916 11.3779 30.5133 10.9801Z" fill="white"/>
</svg>
